<?xml version="1.0" encoding="UTF-8" standalone="no"?>
<!-- Created with Inkscape (http://www.inkscape.org/) -->

<svg
   width="210mm"
   height="297mm"
   viewBox="0 0 210 297"
   version="1.1"
   id="svg80085"
   inkscape:version="1.1 (c68e22c387, 2021-05-23)"
   sodipodi:docname="Camundongo LCC.svg"
   xmlns:inkscape="http://www.inkscape.org/namespaces/inkscape"
   xmlns:sodipodi="http://sodipodi.sourceforge.net/DTD/sodipodi-0.dtd"
   xmlns="http://www.w3.org/2000/svg"
   xmlns:svg="http://www.w3.org/2000/svg">
  <sodipodi:namedview
     id="namedview80087"
     pagecolor="#505050"
     bordercolor="#ffffff"
     borderopacity="1"
     inkscape:pageshadow="0"
     inkscape:pageopacity="0"
     inkscape:pagecheckerboard="1"
     inkscape:document-units="mm"
     showgrid="false"
     inkscape:snap-global="false"
     inkscape:zoom="1.0819965"
     inkscape:cx="325.32453"
     inkscape:cy="500.46373"
     inkscape:window-width="1920"
     inkscape:window-height="1017"
     inkscape:window-x="-8"
     inkscape:window-y="-8"
     inkscape:window-maximized="1"
     inkscape:current-layer="layer1" />
  <defs
     id="defs80082" />
  <g
     inkscape:label="Camada 1"
     inkscape:groupmode="layer"
     id="layer1">
    <path
       id="path95166"
       style="opacity:1;fill:#00ceff;fill-opacity:1;stroke:#00ceff;stroke-width:1.03224;stroke-opacity:1"
       d="M 112.18041,70.920026 A 70.167142,67.757034 0 0 0 42.013243,138.67709 70.167142,67.757034 0 0 0 112.18041,206.43416 70.167142,67.757034 0 0 0 182.34716,138.67709 70.167142,67.757034 0 0 0 112.18041,70.920026 Z" />
    <g
       id="g99173"
       transform="matrix(0.90612839,0,0,0.95272444,7.4611544,7.0913035)"
       style="fill:#000000;fill-opacity:1;stroke:#000000;stroke-opacity:1" />
    <path
       style="opacity:1;fill:#000000;fill-opacity:1;stroke:#000000;stroke-width:0.101887;stroke-miterlimit:4;stroke-dasharray:none;stroke-opacity:1"
       d=""
       id="path136570"
       transform="scale(0.26458333)" />
    <g
       id="g137346"
       transform="matrix(0.86600138,0,0,0.88391185,-0.02395274,14.168507)">
      <path
         id="path133698"
         style="fill:#000000;stroke:#000000;stroke-width:0.251243px;stroke-linecap:butt;stroke-linejoin:miter;stroke-opacity:1"
         d="m 165.9198,119.33149 c 2.98246,-6.52619 -1.86297,-11.2752 -4.6513,-11.01252 -9.03479,0.85114 -1.20714,10.57202 -0.61201,10.57202 m 13.93553,6.90529 c -0.25632,-1.60967 -3.47598,-2.72207 -4.19362,-1.09704 -0.2302,1.1899 3.19837,2.48833 4.19362,1.09704 z m -95.976014,24.58146 c 0.985196,-13.98641 7.487825,-42.4819 70.074124,-31.73373 -5.18212,-10.65344 3.30542,-13.48708 9.5976,-9.43907 3.2157,2.06879 2.37352,7.43852 2.37352,7.43852 1.42549,5.62381 -0.46647,6.89836 -3.29242,0.85541 -0.45551,-2.78585 8.64122,-2.03368 15.89231,2.40299 11.39326,6.9711 15.74286,17.73639 -10.81003,17.32196 -10.25365,2.31301 -19.12774,0.93585 -18.59008,12.95658 l 5.74343,6.99226 8.76628,3.1783 c 4.02091,1.45782 -5.10919,2.83956 -9.39523,2.72591 -3.00764,-6.72323 -14.86736,-12.49288 -23.39919,-9.24016 -6.57077,1.26671 -12.76852,4.88663 -19.75461,3.5333 -0.33511,1.37727 -0.71799,2.75452 -0.60457,4.13179 3.41616,0.472 4.08234,1.26527 3.32515,2.22481 -3.53795,0.17289 -7.71236,2.13028 -9.975435,-1.27132 -11.379349,-6.44003 -21.811486,-2.83407 -19.950849,-12.07755 z m 30.904404,2.88299 -16.327919,0.63561 c -37.689714,5.0684 -4.286555,10.41415 30.418099,17.97712 17.21149,3.75079 -5.82416,15.68632 -14.14345,12.78146 -2.29626,-0.80178 35.98203,-7.13702 2.27605,-12.77151 -18.060307,-3.01907 -28.095852,-5.89591 -30.910214,-6.91808 -17.512808,-5.87695 -5.021426,-14.03855 28.687434,-11.7046 z"
         sodipodi:nodetypes="csccccccsccscccscccccccccssscc" />
      <path
         style="opacity:1;fill:#000000;fill-opacity:1;stroke:#000000;stroke-width:0.0350325;stroke-miterlimit:4;stroke-dasharray:none;stroke-opacity:1"
         d="m 158.57746,116.16937 c -0.22363,-0.0916 -0.51409,-0.45638 -0.97691,-1.22696 -1.0535,-1.754 -1.3894,-3.18199 -0.96516,-4.103 0.0965,-0.20951 0.28399,-0.53199 0.41663,-0.71662 0.26277,-0.36574 0.83955,-0.83924 1.02232,-0.83924 0.30093,0 1.0752,0.74828 1.75745,1.69844 0.6604,0.91972 0.99834,1.62517 1.27644,2.66464 0.15617,0.58369 0.36464,1.87671 0.36464,2.26162 v 0.18511 l -0.7403,8.9e-4 c -0.66681,8.8e-4 -1.05123,0.0257 -1.76027,0.11379 -0.14395,0.0179 -0.29202,0.003 -0.39484,-0.0388 z"
         id="path136609" />
      <path
         style="fill:#000000;fill-opacity:1;stroke:#000000;stroke-width:0.0350325;stroke-miterlimit:4;stroke-dasharray:none;stroke-opacity:1"
         d="m 165.56722,119.84485 c -0.20698,0.12473 -0.67303,0.14002 -1.56753,0.0513 -2.03608,-0.20181 -3.38226,-0.78474 -3.86793,-1.67489 -0.11048,-0.20248 -0.25728,-0.54541 -0.32623,-0.76203 -0.13657,-0.42914 -0.17216,-1.17454 -0.0631,-1.32117 0.17963,-0.24143 1.24216,-0.41595 2.41172,-0.39612 1.1321,0.0192 1.8998,0.16916 2.89976,0.56654 0.56152,0.22314 1.72333,0.82773 2.03214,1.0575 l 0.14852,0.1105 -0.4412,0.59447 c -0.39734,0.5355 -0.6069,0.85873 -0.95948,1.48017 -0.0716,0.12617 -0.17191,0.23607 -0.26682,0.29361 z"
         id="path136609-3" />
    </g>
  </g>
</svg>
